<?xml version="1.0" encoding="UTF-8" standalone="no"?>
<!DOCTYPE svg PUBLIC "-//W3C//DTD SVG 1.1//EN" "http://www.w3.org/Graphics/SVG/1.1/DTD/svg11.dtd">
<svg width="100%" height="100%" viewBox="0 0 1783 666" version="1.1" xmlns="http://www.w3.org/2000/svg" xmlns:xlink="http://www.w3.org/1999/xlink" xml:space="preserve" xmlns:serif="http://www.serif.com/" style="fill-rule:evenodd;clip-rule:evenodd;stroke-linejoin:round;stroke-miterlimit:1.41421;">
    <g transform="matrix(0.75,0,0,0.75,0,0)">
        <g id="Rose-Leaves" serif:id="Rose Leaves" transform="matrix(4.16667,0,0,4.16667,-874.056,-347.413)">
            <g transform="matrix(1,0,0,1,209.773,253.109)">
                <path d="M0,-1.218C0,-1.218 7.328,22.774 32.328,34.774C57.328,46.774 131.227,50.891 169.828,12.024C173.103,8.726 170.264,6.676 166.328,5.118C128.477,-9.859 77.594,14.571 55.227,17.391C25.917,21.087 24.328,7.782 24.328,7.782C24.328,7.782 48.811,9.973 80.227,-2.859C103.727,-15.609 150.602,-8.109 152.328,-10.218C153.664,-11.85 155,-22.256 145.227,-26.609C87.977,-52.109 35.977,5.391 0,-1.218" style="fill:rgb(11,103,63);fill-rule:nonzero;"/>
            </g>
            <g transform="matrix(1,0,0,1,759.876,242.624)">
                <path d="M0,32.752C3.951,30.61 13.624,24.376 20.034,13.215C20.231,13.042 20.236,13.047 20.048,13.23C-62.376,3.876 -57.876,-34.624 -115.874,-25.622C-118.375,-25.234 -119.29,-18.387 -119.765,-16.013C-121.974,-4.976 -114.717,-7.014 -105.85,-6.599C-74.376,-5.124 -50.135,13.671 -20.487,16.987C-11.924,17.945 -3.034,18.471 5.572,18.95C-39.876,42.376 -80.376,0.876 -125.876,4.876C-134.128,5.602 -140.987,6.875 -148.35,10.878C-154.868,14.421 -161.376,19.876 -151.403,26.403C-149,27.977 -63.876,67.376 0,32.752" style="fill:rgb(11,103,63);fill-rule:nonzero;"/>
            </g>
        </g>
        <g id="Rose-Petals" serif:id="Rose Petals" transform="matrix(4.16667,0,0,4.16667,-874.056,-347.413)">
            <g transform="matrix(1,0,0,1,422.195,284.015)">
                <path d="M0,-181.531C-1.344,-183.383 -8.172,-185.211 -12.664,-185.875C-18.492,-186.734 -22.711,-185.015 -28,-184.273C-32.797,-183.601 -38.492,-183.5 -41.93,-179.515C-45.82,-174.992 -43.82,-169.773 -42.656,-164.883C-41.641,-160.64 -40.041,-154.069 -42.197,-150.014C-44.455,-145.749 -51.825,-144.111 -55.864,-142.681C-60.153,-141.166 -63.814,-137.416 -64.197,-132.681C-64.416,-129.931 -64.369,-126.002 -63.197,-123.681C-62.306,-121.916 -58.875,-121.156 -58.664,-119.211C-58.344,-116.211 -61.266,-115.156 -62.594,-112.851C-63.836,-110.703 -65.219,-106.14 -65.344,-103.633C-65.594,-98.617 -63.516,-94.867 -60.75,-90.804C-58.078,-86.867 -53.094,-84.984 -50.586,-80.953C-47.867,-76.57 -49.016,-71.281 -50.422,-66.875C-57.563,-44.437 -30.656,-34.586 -15.758,-24.133C-11.219,-20.953 -8.516,-18.258 -6.422,-13.133C-3.422,-5.797 -3.172,-4.343 1.586,-1.437C6.539,1.578 10.203,1.86 15.914,1.867C18.656,1.867 21.539,0.696 24.258,0.727C27.164,0.758 31.156,2.633 33.914,3.203C43.578,5.203 53.547,3.391 59.406,-3.383C65.656,-11.633 64.75,-14.211 66.156,-18.383C67.711,-23.015 64.188,-28.781 59,-29.203C54.5,-29.57 47.516,-31.265 41.305,-33.039C35.992,-34.554 31.234,-36.117 29.078,-36.953C24.969,-38.539 21.594,-40.586 17.656,-42.633C12.836,-45.14 7.547,-46.523 3.648,-50.875C0.219,-54.703 -2.984,-59.82 -1.094,-64.883C-0.117,-67.492 0.461,-68.515 -1.242,-71.265C-2.656,-73.554 -5.633,-74.601 -7.578,-76.297C-11.43,-79.64 -13.422,-83.531 -13.672,-88.531C-13.938,-93.914 -8.844,-93.633 -12.672,-104.531C-13.195,-108.078 -16.891,-109.851 -17.281,-113.476C-14.938,-114.461 -12.719,-111.633 -10.055,-111.922C-4.297,-117.679 -7.914,-134.054 -9.422,-144.133C-10.938,-154.187 -11.023,-162.492 -5.422,-171.133C-4.156,-173.078 0,-181.531 0,-181.531" style="fill:rgb(228,23,62);fill-rule:nonzero;"/>
            </g>
            <g transform="matrix(1,0,0,1,556.852,201.938)">
                <path d="M0,33.945C5.367,35.273 9,38.195 16,36.195C23.625,34.015 25.125,27.75 26.25,20.695C26.891,16.695 26.328,12.539 25.75,8.695C25.188,4.992 25.289,0.617 23.938,-2.993C22.742,-6.203 21.32,-9.688 19.313,-12.563C17.422,-15.258 14.992,-17.766 13.75,-20.805C12,-25.094 14.883,-26.297 16.688,-29.868C18.383,-33.219 20.172,-36.328 22.563,-39.297C25.75,-43.258 27.648,-41.719 32,-41.305C36.18,-40.907 39.664,-40.094 43.75,-39.5C51.344,-38.391 58.008,-36.375 65.25,-33.555C71.578,-31.086 78.75,-24.805 79.766,-17.571C80.273,-13.914 78.891,-8.125 77.563,-4.75C76.125,-1.102 73.922,2.031 71.93,5.39C67.773,12.422 72.266,19.461 68.75,26.695C65.438,33.507 56.938,38.265 50.445,41.133C43.883,44.031 35.922,44.039 32.25,51.195C28.867,57.804 26.836,63.625 20.57,68.515C14.688,73.101 5.711,75.578 -1.5,75.945C-5.5,76.148 -9.234,75.625 -12.805,74.5C-16.211,73.429 -19.172,70.242 -22.75,69.679C-31.273,68.343 -35.633,73.367 -43.25,74.195C-47.258,74.625 -52.758,75.797 -56.75,76.195C-60.625,76.586 -65.539,77.203 -64.945,71.75C-64.547,68.101 -62.914,64.508 -62.742,60.703C-62.539,56.133 -61.836,54.429 -57.688,52.508C-51.492,49.625 -20.25,28.945 0,33.945" style="fill:rgb(228,23,62);fill-rule:nonzero;"/>
            </g>
            <g transform="matrix(1,0,0,1,422.352,153.032)">
                <path d="M0,-2.399C-6,-18.399 -3.75,-42.149 10.32,-56.899C13.586,-60.321 20.188,-62.68 21.086,-55.813C21.75,-50.712 18.203,-45.665 17.078,-41.157C15.75,-35.86 14.75,-30.79 14.75,-25.149C14.75,-22.133 14.445,-20.329 16.344,-18.055C18.117,-15.93 18.961,-15.571 19.766,-12.829C22.117,-4.813 33.344,-1.016 37.086,7.187C40.969,15.695 45.391,25.492 43.5,35.351C42.578,40.179 41.5,40.851 41,50.601C40.664,57.171 36.344,60.281 30.414,58.187C20.25,54.601 21.25,58.101 14.742,58.507C10.242,58.789 6.25,57.609 2.25,53.601C-0.586,50.757 -6.18,46.671 -6.914,42.851C-8.016,37.148 -4.836,32.328 -3.164,27.187C-0.266,18.265 4.664,9.257 9.492,1.257C10.93,-1.126 14.094,-6.962 14.5,-9.649C14.891,-12.235 13.211,-10.696 11.086,-9.501C11.313,-9.626 7.734,-5.907 7.836,-6.063C6.063,-3.313 8.047,-0.61 5.75,2.351C4.602,3.828 2.734,5.164 1.836,6.937C1.055,8.46 1.031,10.726 -0.75,11.101C-2.516,6.914 1,0.851 0,-2.399" style="fill:rgb(228,23,62);fill-rule:nonzero;"/>
            </g>
            <g transform="matrix(1,0,0,1,459.666,138.699)">
                <path d="M0,12.968C-5.75,8.051 -15.927,0.165 -16.721,-8.95C-18.332,-27.449 -15.499,-26.366 -14.416,-32.533C-13.716,-36.514 -15.031,-40.895 -14.422,-44.955C-13.335,-52.192 -4.581,-58.184 2.751,-53.866C5.87,-52.029 9.157,-50.379 12.834,-50.032C16.705,-49.668 20.508,-52.247 24.028,-53.005C27.679,-53.791 31.665,-54.401 35.501,-54.616C42.917,-55.032 42.907,-52.456 44.417,-49.199C45.212,-47.486 47.501,-47.116 47.917,-44.449C48.633,-39.867 52.968,-36.92 58.391,-37.636C62.159,-38.135 65.202,-41.131 68.896,-42.386C71.485,-43.267 72.592,-42.715 75.382,-42.443C78.047,-42.183 79.139,-43.173 81.39,-43.893C84.757,-44.972 89.349,-43.197 92.528,-42.143C96.445,-40.846 97.774,-37.353 99.249,-34.031C100.008,-32.323 100.753,-30.809 100.499,-28.781C100.236,-26.683 98.586,-25.065 98.583,-22.865C98.579,-19.766 101.487,-17.05 103.535,-14.943C105.973,-12.435 108.415,-9.891 109.778,-6.693C111.341,-3.029 112.397,1.566 113.249,5.386C115.008,13.283 113.42,22.56 110.666,29.135C109.292,32.413 106.472,34.407 105.522,37.989C104.666,41.218 102.749,42.718 100.39,46.107C98.338,49.053 98.012,52.814 94.779,54.989C91.731,57.04 88.287,57.299 85.022,58.995C82.096,60.516 79.697,61.647 77.646,64.364C76.63,65.71 76.128,67.254 74.598,68.065C73.23,68.79 70.937,68.633 69.389,69.107C68.064,69.512 65.473,71.152 64.267,69.869C63.282,68.822 64.37,65.197 64.598,64.064C65.381,60.175 65.694,56.019 66.5,52.218C68.103,44.652 70.754,37.623 70.835,29.55C70.92,21.05 69.42,23.8 71.333,9.385C71.875,5.301 74.009,-3.428 72.091,-6.706C69.999,-10.282 69.249,-11.365 71.403,-17.392C72.626,-20.813 75.684,-24.482 74.597,-28.462C73.561,-32.255 68.332,-35.115 66.828,-29.205C65.811,-25.207 67.34,-22.136 64.999,-18.532C63.912,-16.858 62.447,-14.99 62.528,-12.949C62.602,-11.112 63.61,-9.397 64.098,-7.45C65.93,-0.141 64.232,8.913 56.09,11.113C53.295,11.867 50.105,12.851 47.249,13.051C42.499,13.385 44.116,13.735 40.499,15.718C37.916,17.135 39.557,11.483 41.333,9.489C43.411,7.156 45.292,5.607 46.377,2.593C46.964,2.61 48.507,-6.205 47.327,-9.955C46.628,-12.177 44.849,-17.295 44.084,-19.032C40.747,-26.606 27.722,-29.071 20.334,-28.705C16.684,-28.524 11.462,-29.095 8.07,-27.963C5.281,-27.032 2.073,-23.59 -0.228,-21.761C-3.486,-19.172 -5.861,-16.784 -5.416,-12.199C-5.092,-8.866 -2.221,-6.275 -0.104,-3.767C2.338,-0.874 4.375,0.53 7.417,2.801C10.844,5.363 11.711,9.784 13,13.718C13.537,15.357 13.517,24.842 17,22.968C19.147,21.813 18.91,13.987 18.591,12.05C17.305,4.243 16.583,-0.031 6.083,-5.031C1.677,-7.129 3.637,-12.345 5.528,-16.199C7.337,-19.886 12.4,-21.107 16.347,-19.949C18.19,-19.408 19.272,-18.361 21.334,-18.449C23.428,-18.538 24.648,-19.585 26.522,-20.261C30.001,-21.513 34.339,-20.678 37.266,-18.637C46.5,-12.199 45.5,-4.73 39.772,1.994C37.621,4.521 33.865,6.678 31.902,9.369C30.25,11.635 31.167,12.468 24.578,17.045C21.541,19.156 21.15,23.748 17.89,25.869C13.898,28.467 14.175,29.694 12.847,34.051C10.523,41.672 8.695,30.056 8.139,27.801C7.598,25.61 7.218,23.469 6.272,21.357C5.462,19.546 2.099,14.763 0,12.968" style="fill:rgb(228,23,62);fill-rule:nonzero;"/>
            </g>
            <g transform="matrix(1,0,0,1,469,168.215)">
                <path d="M0,32.785C1.563,29.408 1.548,25.603 3.063,22.103C4.576,18.609 6.705,15.143 8.812,12.042C13.096,5.737 18.689,0.845 24.944,-3.521C30.813,-7.616 36.718,-10.661 43.25,-13.465C46.235,-14.746 51.035,-16.458 53.249,-12.714C54.818,-10.062 54.241,-3.866 54.25,-0.715C54.261,3.391 53.511,8.734 53.333,12.702C53.083,18.285 52.446,18.413 52.083,22.535C51.724,26.628 50.973,31.517 50.194,35.479C49.614,38.437 48.837,44.33 46.813,46.792C44.795,49.243 38.982,48.543 35.994,47.785C32.14,46.807 29.158,46.317 25,46.535C20.827,46.754 17.274,46.177 13.25,46.785C9.959,47.282 5.056,46.748 2.188,44.848C-0.234,43.243 -1.694,39.943 -0.75,37.035L0,32.785Z" style="fill:rgb(228,23,62);fill-rule:nonzero;"/>
            </g>
            <g transform="matrix(1,0,0,1,439.666,202.527)">
                <path d="M0,33.807C-1.973,32.523 -3.32,30.188 -5.332,28.889C-8.944,26.558 -15.213,21.267 -11.25,17.207C-5,10.807 4.333,11.473 16.648,12.825C35.056,14.846 46,22.14 75.659,16.473C80.335,15.579 84.283,13.133 88.333,10.807C92.093,8.647 95.677,8.217 99.667,6.14C103.271,4.265 107.63,2.717 110.416,-0.444C112.018,-2.262 112.999,-3.441 114.667,-5.193C115.881,-6.469 120.085,-8.74 121.667,-9.527C134.438,-15.88 134.333,-7.193 137.333,8.807C139.166,18.579 136.601,32.989 122.416,28.724C117.951,27.381 113.964,24.641 109.674,23.464C107.058,22.746 104.003,22.624 101.333,23.148C98.477,23.707 98.026,24.888 95.75,26.556C91.819,29.433 86.73,28.64 82.909,31.383C78.524,34.53 76.478,37.372 71,38.733C66.473,39.857 65.228,43.542 60.667,45.14C56.005,46.773 50.461,44.743 45.992,47.058C40.917,49.687 39.593,49.075 34.324,47.483C31.946,46.764 29.528,47.433 27,46.807C18.583,44.723 17.439,41.393 11.333,40.14C8.083,39.473 1.641,34.875 0,33.807" style="fill:rgb(228,23,62);fill-rule:nonzero;"/>
            </g>
        </g>
    </g>
</svg>
