<?xml version="1.0" encoding="UTF-8" standalone="no"?><!DOCTYPE svg PUBLIC "-//W3C//DTD SVG 1.1//EN" "http://www.w3.org/Graphics/SVG/1.1/DTD/svg11.dtd"><svg width="100%" height="100%" viewBox="0 0 3662 354" version="1.1" xmlns="http://www.w3.org/2000/svg" xmlns:xlink="http://www.w3.org/1999/xlink" xml:space="preserve" xmlns:serif="http://www.serif.com/" style="fill-rule:evenodd;clip-rule:evenodd;stroke-linejoin:round;stroke-miterlimit:1.41421;"><g id="Rose-Leaves" serif:id="Rose Leaves"><path d="M0,281.907c0,0 11.909,38.99 52.537,58.491c40.627,19.501 160.721,26.192 223.452,-36.971c5.323,-5.36 0.709,-8.691 -5.688,-11.223c-61.512,-24.34 -144.202,15.362 -180.551,19.945c-47.632,6.006 -50.214,-15.616 -50.214,-15.616c0,0 39.787,3.561 90.842,-17.293c38.19,-20.72 114.367,-8.532 117.172,-11.959c2.171,-2.652 4.342,-19.563 -11.54,-26.637c-93.038,-41.441 -177.543,52.003 -236.01,41.263" style="fill:#0b673f;fill-rule:nonzero;"/><path d="M893.978,320.073c6.42,-3.481 22.14,-13.612 32.557,-31.749c0.32,-0.282 0.328,-0.273 0.023,0.024c-133.948,-15.201 -126.635,-77.768 -220.888,-63.139c-4.065,0.631 -5.552,11.758 -6.324,15.616c-3.59,17.936 8.204,14.624 22.614,15.299c51.148,2.397 90.543,32.941 138.724,38.33c13.916,1.556 28.363,2.411 42.349,3.19c-73.858,38.069 -139.675,-29.373 -213.618,-22.872c-13.41,1.18 -24.557,3.248 -36.523,9.754c-10.592,5.757 -21.168,14.622 -4.961,25.23c3.905,2.557 142.241,66.585 246.047,10.317" style="fill:#0b673f;fill-rule:nonzero;"/></g><g id="Rose-Petals" serif:id="Rose Petals"><path d="M345.209,39.105c-2.184,-3.009 -13.28,-5.98 -20.58,-7.059c-9.471,-1.396 -16.328,1.398 -24.923,2.603c-7.796,1.092 -17.051,1.257 -22.638,7.733c-6.321,7.35 -3.071,15.831 -1.18,23.778c1.65,6.896 4.25,17.574 0.746,24.164c-3.669,6.931 -15.646,9.593 -22.21,11.917c-6.97,2.462 -12.92,8.556 -13.542,16.251c-0.356,4.469 -0.28,10.854 1.625,14.626c1.448,2.868 7.024,4.103 7.367,7.264c0.52,4.876 -4.229,6.59 -6.387,10.336c-2.018,3.491 -4.266,10.906 -4.469,14.98c-0.406,8.152 2.971,14.246 7.466,20.849c4.342,6.398 12.441,9.458 16.517,16.009c4.419,7.123 2.552,15.718 0.267,22.878c-11.605,36.464 32.122,52.473 56.333,69.461c7.376,5.167 11.769,9.547 15.172,17.876c4.875,11.922 5.281,14.285 13.014,19.007c8.049,4.9 14.003,5.358 23.284,5.369c4.456,0 9.141,-1.903 13.56,-1.852c4.723,0.05 11.21,3.097 15.692,4.024c15.705,3.25 31.906,0.305 41.427,-10.703c10.157,-13.408 8.685,-17.597 10.97,-24.377c2.527,-7.528 -3.198,-16.898 -11.629,-17.584c-7.313,-0.596 -18.663,-3.351 -28.757,-6.234c-8.634,-2.462 -16.366,-5.002 -19.87,-6.36c-6.678,-2.578 -12.162,-5.904 -18.562,-9.231c-7.833,-4.074 -16.428,-6.322 -22.765,-13.394c-5.572,-6.221 -10.777,-14.537 -7.706,-22.765c1.588,-4.24 2.527,-5.902 -0.24,-10.371c-2.298,-3.72 -7.136,-5.422 -10.297,-8.178c-6.26,-5.432 -9.497,-11.756 -9.903,-19.881c-0.433,-8.748 7.846,-8.292 1.625,-26.002c-0.85,-5.764 -6.857,-8.646 -7.49,-14.537c3.807,-1.6 7.413,2.995 11.743,2.526c9.357,-9.356 3.479,-35.967 1.028,-52.347c-2.463,-16.339 -2.602,-29.835 6.501,-43.878c2.057,-3.161 8.811,-16.898 8.811,-16.898" style="fill:#e4173e;fill-rule:nonzero;"/><path d="M564.04,255.893c8.722,2.158 14.626,6.906 26.002,3.656c12.392,-3.543 14.829,-13.724 16.658,-25.189c1.041,-6.501 0.126,-13.255 -0.813,-19.501c-0.913,-6.018 -0.749,-13.128 -2.945,-18.995c-1.943,-5.216 -4.254,-10.88 -7.516,-15.552c-3.073,-4.38 -7.022,-8.456 -9.04,-13.394c-2.844,-6.97 1.841,-8.925 4.774,-14.729c2.755,-5.445 5.662,-10.498 9.548,-15.323c5.179,-6.437 8.264,-3.936 15.336,-3.263c6.793,0.647 12.455,1.968 19.095,2.933c12.341,1.803 23.171,5.079 34.94,9.662c10.284,4.012 21.939,14.219 23.59,25.975c0.824,5.943 -1.422,15.351 -3.58,20.836c-2.337,5.928 -5.917,11.02 -9.154,16.479c-6.756,11.427 0.546,22.866 -5.168,34.623c-5.383,11.07 -19.196,18.802 -29.748,23.463c-10.664,4.709 -23.601,4.722 -29.569,16.352c-5.497,10.74 -8.798,20.2 -18.981,28.147c-9.559,7.452 -24.148,11.478 -35.866,12.074c-6.501,0.33 -12.569,-0.52 -18.372,-2.348c-5.535,-1.741 -10.347,-6.92 -16.162,-7.835c-13.851,-2.171 -20.936,5.994 -33.315,7.339c-6.513,0.699 -15.451,2.604 -21.939,3.25c-6.297,0.636 -14.283,1.639 -13.317,-7.223c0.646,-5.93 3.3,-11.769 3.58,-17.953c0.33,-7.426 1.472,-10.196 8.213,-13.318c10.069,-4.685 60.841,-38.292 93.749,-30.166" style="fill:#e4173e;fill-rule:nonzero;"/><path d="M345.463,117.352c-9.751,-26.002 -6.094,-64.598 16.771,-88.569c5.308,-5.561 16.037,-9.394 17.496,1.765c1.079,8.29 -4.685,16.492 -6.513,23.818c-2.158,8.608 -3.784,16.847 -3.784,26.015c0,4.901 -0.495,7.833 2.591,11.528c2.881,3.454 4.253,4.037 5.561,8.493c3.821,13.027 22.066,19.197 28.147,32.528c6.31,13.827 13.496,29.748 10.423,45.77c-1.498,7.846 -3.25,8.938 -4.062,24.783c-0.546,10.677 -7.567,15.731 -17.204,12.328c-16.517,-5.828 -14.892,-0.14 -25.469,0.52c-7.313,0.458 -13.8,-1.459 -20.3,-7.973c-4.609,-4.622 -13.7,-11.262 -14.893,-17.47c-1.791,-9.268 3.377,-17.101 6.094,-25.456c4.71,-14.499 12.722,-29.138 20.568,-42.139c2.337,-3.872 7.478,-13.357 8.138,-17.723c0.636,-4.203 -2.095,-1.702 -5.548,0.24c0.369,-0.203 -5.447,5.841 -5.282,5.587c-2.881,4.47 0.343,8.862 -3.39,13.674c-1.865,2.4 -4.901,4.572 -6.36,7.453c-1.269,2.475 -1.308,6.157 -4.203,6.767c-2.87,-6.804 2.844,-16.658 1.219,-21.939" style="fill:#e4173e;fill-rule:nonzero;"/><path d="M406.103,119.033c-9.344,-7.991 -25.883,-20.807 -27.173,-35.62c-2.618,-30.063 1.986,-28.303 3.746,-38.325c1.137,-6.469 -1,-13.589 -0.01,-20.187c1.766,-11.761 15.992,-21.498 27.908,-14.481c5.069,2.985 10.41,5.667 16.386,6.231c6.291,0.591 12.471,-3.6 18.191,-4.832c5.934,-1.277 12.411,-2.269 18.645,-2.618c12.052,-0.676 12.036,3.51 14.49,8.803c1.292,2.784 5.012,3.385 5.688,7.72c1.163,7.446 8.208,12.235 17.021,11.071c6.123,-0.81 11.069,-5.679 17.072,-7.719c4.207,-1.432 6.006,-0.534 10.54,-0.092c4.331,0.422 6.106,-1.187 9.764,-2.357c5.472,-1.753 12.934,1.131 18.1,2.844c6.366,2.108 8.526,7.784 10.923,13.183c1.233,2.776 2.444,5.236 2.031,8.532c-0.427,3.409 -3.109,6.039 -3.114,9.614c-0.006,5.036 4.72,9.45 8.048,12.874c3.962,4.076 7.93,8.21 10.146,13.407c2.54,5.955 4.256,13.422 5.64,19.63c2.859,12.833 0.278,27.91 -4.197,38.595c-2.233,5.327 -6.816,8.567 -8.36,14.388c-1.391,5.248 -4.506,7.686 -8.34,13.193c-3.335,4.788 -3.865,10.9 -9.119,14.434c-4.953,3.333 -10.55,3.754 -15.856,6.511c-4.755,2.471 -8.653,4.309 -11.987,8.725c-1.651,2.187 -2.466,4.696 -4.953,6.014c-2.223,1.178 -5.949,0.923 -8.465,1.694c-2.153,0.658 -6.364,3.323 -8.324,1.238c-1.601,-1.702 0.167,-7.593 0.538,-9.434c1.272,-6.32 1.781,-13.074 3.091,-19.251c2.605,-12.295 6.913,-23.718 7.045,-36.838c0.138,-13.813 -2.3,-9.344 0.809,-32.77c0.881,-6.637 4.349,-20.823 1.232,-26.15c-3.4,-5.811 -4.619,-7.571 -1.118,-17.366c1.987,-5.559 6.957,-11.522 5.191,-17.99c-1.684,-6.164 -10.182,-10.812 -12.626,-1.207c-1.653,6.497 0.832,11.488 -2.972,17.345c-1.767,2.72 -4.148,5.756 -4.016,9.073c0.12,2.985 1.758,5.772 2.551,8.936c2.978,11.878 0.218,26.592 -13.013,30.167c-4.543,1.225 -9.727,2.824 -14.368,3.149c-7.719,0.543 -5.091,1.112 -10.97,4.335c-4.197,2.302 -1.53,-6.883 1.356,-10.123c3.377,-3.792 6.434,-6.309 8.197,-11.207c0.954,0.028 3.461,-14.298 1.544,-20.392c-1.136,-3.611 -4.027,-11.928 -5.27,-14.751c-5.423,-12.309 -26.591,-16.314 -38.597,-15.72c-5.932,0.294 -14.418,-0.633 -19.93,1.206c-4.533,1.513 -9.746,7.107 -13.485,10.079c-5.295,4.208 -9.155,8.088 -8.431,15.539c0.526,5.417 5.192,9.628 8.632,13.703c3.969,4.702 7.279,6.983 12.223,10.674c5.569,4.164 6.978,11.348 9.073,17.741c0.872,2.664 0.84,18.078 6.5,15.033c3.489,-1.877 3.104,-14.595 2.586,-17.743c-2.09,-12.688 -3.264,-19.633 -20.327,-27.759c-7.161,-3.409 -3.975,-11.886 -0.902,-18.149c2.94,-5.992 11.167,-7.976 17.582,-6.094c2.995,0.879 4.753,2.58 8.104,2.437c3.403,-0.144 5.386,-1.846 8.431,-2.944c5.654,-2.035 12.704,-0.678 17.46,2.639c15.007,10.462 13.382,22.6 4.073,33.528c-3.496,4.106 -9.6,7.612 -12.79,11.985c-2.684,3.682 -1.194,5.036 -11.902,12.474c-4.935,3.431 -5.571,10.893 -10.869,14.34c-6.487,4.222 -6.037,6.216 -8.195,13.297c-3.777,12.385 -6.748,-6.493 -7.651,-10.157c-0.879,-3.561 -1.497,-7.04 -3.034,-10.472c-1.317,-2.943 -6.782,-10.716 -10.193,-13.633" style="fill:#e4173e;fill-rule:nonzero;"/><path d="M421.272,199.204c2.54,-5.488 2.516,-11.671 4.978,-17.359c2.458,-5.678 5.918,-11.311 9.342,-16.351c6.962,-10.246 16.052,-18.196 26.217,-25.291c9.537,-6.655 19.134,-11.603 29.749,-16.16c4.851,-2.082 12.651,-4.864 16.249,1.22c2.55,4.31 1.613,14.379 1.627,19.5c0.018,6.673 -1.201,15.356 -1.49,21.804c-0.406,9.073 -1.442,9.281 -2.031,15.98c-0.584,6.651 -1.804,14.597 -3.07,21.035c-0.943,4.807 -2.206,14.384 -5.495,18.385c-3.279,3.983 -12.726,2.846 -17.582,1.614c-6.263,-1.59 -11.109,-2.386 -17.866,-2.032c-6.782,0.356 -12.556,-0.581 -19.095,0.407c-5.349,0.807 -13.317,-0.06 -17.977,-3.148c-3.936,-2.608 -6.309,-7.971 -4.775,-12.697l1.219,-6.907Z" style="fill:#e4173e;fill-rule:nonzero;"/><path d="M373.602,256.626c-3.207,-2.087 -5.396,-5.881 -8.665,-7.992c-5.87,-3.789 -16.058,-12.387 -9.618,-18.985c10.157,-10.401 25.324,-9.318 45.338,-7.121c29.915,3.284 47.7,15.138 95.899,5.928c7.599,-1.453 14.015,-5.428 20.597,-9.208c6.11,-3.51 11.934,-4.209 18.419,-7.584c5.857,-3.047 12.94,-5.563 17.468,-10.7c2.603,-2.954 4.198,-4.87 6.908,-7.718c1.973,-2.073 8.805,-5.764 11.376,-7.043c20.754,-10.324 20.584,3.793 25.459,29.795c2.979,15.881 -1.19,39.298 -24.242,32.367c-7.256,-2.182 -13.735,-6.635 -20.707,-8.548c-4.251,-1.167 -9.216,-1.365 -13.555,-0.513c-4.641,0.908 -5.374,2.827 -9.073,5.538c-6.388,4.676 -14.658,3.387 -20.868,7.845c-7.126,5.114 -10.451,9.732 -19.353,11.944c-7.357,1.827 -9.381,7.815 -16.793,10.412c-7.576,2.654 -16.586,-0.645 -23.848,3.117c-8.248,4.273 -10.399,3.278 -18.962,0.691c-3.864,-1.169 -7.794,-0.081 -11.902,-1.099c-13.679,-3.386 -15.538,-8.798 -25.461,-10.834c-5.282,-1.084 -15.75,-8.557 -18.417,-10.292" style="fill:#e4173e;fill-rule:nonzero;"/></g><g id="Layer-4" serif:id="Layer 4"><g transform="matrix(0.24,0,0,0.24,193,6.68063)"><path d="M3131.94,605.664l-224.8,-592l-77.6,0l-224.8,592l91.2,0l65.6,-174.4l212.8,0l65.6,174.4l92,0Zm-340,-253.6l76,-226.4l1.6,0l75.2,226.4l-152.8,0Z" style="fill-rule:nonzero;"/><path d="M3679.14,605.664l-224.8,-592l-77.6,0l-224.8,592l91.2,0l65.6,-174.4l212.8,0l65.6,174.4l92,0Zm-340,-253.6l76,-226.4l1.6,0l75.2,226.4l-152.8,0Z" style="fill-rule:nonzero;"/><path d="M4131.94,605.664l-165.6,-220.8c38.4,0 169.6,-24.8 169.6,-181.6c0,-49.6 -16.8,-104 -54.4,-140c-31.2,-29.6 -74.4,-49.6 -157.6,-49.6l-183.2,0l0,592l86.4,0l0,-274.4l1.6,0l195.2,274.4l108,0Zm-304.8,-512.8l91.2,0c97.6,0 131.2,60.8 131.2,110.4c0,114.4 -128,116 -163.2,116l-59.2,0l0,-226.4Z" style="fill-rule:nonzero;"/><path d="M4655.14,605.664l-231.2,-298.4l231.2,-293.6l-106.4,0l-224.8,293.6l-1.6,0l0,-293.6l-86.4,0l0,592l86.4,0l0,-298.4l1.6,0l224.8,298.4l106.4,0Z" style="fill-rule:nonzero;"/><path d="M5401.54,605.664l-224.8,-592l-77.6,0l-224.8,592l91.2,0l65.6,-174.4l212.8,0l65.6,174.4l92,0Zm-340,-253.6l76,-226.4l1.6,0l75.2,226.4l-152.8,0Z" style="fill-rule:nonzero;"/><path d="M5463.14,605.664l188.8,0c83.2,0 163.2,-18.4 231.2,-85.6c44,-43.2 74.4,-128.8 74.4,-208.8c0,-57.6 -18.4,-129.6 -60.8,-188.8c-44.8,-61.6 -118.4,-108.8 -241.6,-108.8l-192,0l0,592Zm86.4,-512.8l104.8,0c161.6,0 216.8,128.8 216.8,218.4c0,163.2 -114.4,215.2 -218.4,215.2l-103.2,0l0,-433.6Z" style="fill-rule:nonzero;"/><path d="M6256.74,605.664l237.6,-592l-91.2,0l-172,444l-172,-444l-92.8,0l238.4,592l52,0Z" style="fill-rule:nonzero;"/><path d="M6959.94,605.664l-224.8,-592l-77.6,0l-224.8,592l91.2,0l65.6,-174.4l212.8,0l65.6,174.4l92,0Zm-340,-253.6l76,-226.4l1.6,0l75.2,226.4l-152.8,0Z" style="fill-rule:nonzero;"/><path d="M7499.94,605.664l0,-592l-86.4,0l0,450.4l-1.6,0l-288,-450.4l-94.4,0l0,592l86.4,0l0,-457.6l1.6,0l292.8,457.6l89.6,0Z" style="fill-rule:nonzero;"/><path d="M8167.14,164.864c-15.2,-26.4 -37.6,-66.4 -91.2,-104.8c-64,-46.4 -136,-57.6 -180.8,-57.6c-165.6,0 -304.8,132 -304.8,304.8c0,168 136,309.6 304,309.6c92,0 203.2,-41.6 268.8,-157.6l-106.4,0c-40.8,48 -99.2,78.4 -161.6,78.4c-116,0 -218.4,-102.4 -218.4,-229.6c0,-124.8 96.8,-226.4 220,-226.4c96,0 148.8,63.2 166.4,83.2l104,0Z" style="fill-rule:nonzero;"/><path d="M8556.74,605.664l0,-79.2l-232.8,0l0,-180l232.8,0l0,-79.2l-232.8,0l0,-174.4l232.8,0l0,-79.2l-319.2,0l0,592l319.2,0Z" style="fill-rule:nonzero;"/><path d="M8653.54,605.664l188.8,0c83.2,0 163.2,-18.4 231.2,-85.6c44,-43.2 74.4,-128.8 74.4,-208.8c0,-57.6 -18.4,-129.6 -60.8,-188.8c-44.8,-61.6 -118.4,-108.8 -241.6,-108.8l-192,0l0,592Zm86.4,-512.8l104.8,0c161.6,0 216.8,128.8 216.8,218.4c0,163.2 -114.4,215.2 -218.4,215.2l-103.2,0l0,-433.6Z" style="fill-rule:nonzero;"/><path d="M9779.94,605.664l0,-79.2l-232.8,0l0,-180l232.8,0l0,-79.2l-232.8,0l0,-174.4l232.8,0l0,-79.2l-319.2,0l0,592l319.2,0Z" style="fill-rule:nonzero;"/><path d="M10179.9,605.664l0,-79.2l-205.6,0l0,-512.8l-86.4,0l0,592l292,0Z" style="fill-rule:nonzero;"/><path d="M10551.1,605.664l0,-79.2l-232.8,0l0,-180l232.8,0l0,-79.2l-232.8,0l0,-174.4l232.8,0l0,-79.2l-319.2,0l0,592l319.2,0Z" style="fill-rule:nonzero;"/><path d="M11203.1,164.864c-15.2,-26.4 -37.6,-66.4 -91.2,-104.8c-64,-46.4 -136,-57.6 -180.8,-57.6c-165.6,0 -304.8,132 -304.8,304.8c0,168 136,309.6 304,309.6c92,0 203.2,-41.6 268.8,-157.6l-106.4,0c-40.8,48 -99.2,78.4 -161.6,78.4c-116,0 -218.4,-102.4 -218.4,-229.6c0,-124.8 96.8,-226.4 220,-226.4c96,0 148.8,63.2 166.4,83.2l104,0Z" style="fill-rule:nonzero;"/><path d="M11427.1,605.664l0,-512.8l113.6,0l0,-79.2l-313.6,0l0,79.2l113.6,0l0,512.8l86.4,0Z" style="fill-rule:nonzero;"/><path d="M11990.3,605.664l-165.6,-220.8c38.4,0 169.6,-24.8 169.6,-181.6c0,-49.6 -16.8,-104 -54.4,-140c-31.2,-29.6 -74.4,-49.6 -157.6,-49.6l-183.2,0l0,592l86.4,0l0,-274.4l1.6,0l195.2,274.4l108,0Zm-304.8,-512.8l91.2,0c97.6,0 131.2,60.8 131.2,110.4c0,114.4 -128,116 -163.2,116l-59.2,0l0,-226.4Z" style="fill-rule:nonzero;"/><path d="M12668.7,311.264c0,-168.8 -132,-308.8 -308,-308.8c-180.8,0 -308,146.4 -308,307.2c0,162.4 131.2,307.2 308,307.2c176,0 308,-144 308,-305.6Zm-86.4,0.8c0,92.8 -68.8,225.6 -221.6,225.6c-152,0 -221.6,-131.2 -221.6,-228c0,-94.4 68.8,-228 221.6,-228c147.2,0 221.6,125.6 221.6,230.4Z" style="fill-rule:nonzero;"/><path d="M13054.3,605.664l0,-79.2l-205.6,0l0,-512.8l-86.4,0l0,592l292,0Z" style="fill-rule:nonzero;"/><path d="M13271.1,605.664l0,-213.6l182.4,-378.4l-96,0l-129.6,277.6l-130.4,-277.6l-96.8,0l184,378.4l0,213.6l86.4,0Z" style="fill-rule:nonzero;"/><path d="M13479.1,430.464c0,132 100.8,186.4 182.4,186.4c108.8,0 181.6,-76 181.6,-179.2c0,-142.4 -107.2,-165.6 -181.6,-193.6c-25.6,-9.6 -79.2,-24.8 -79.2,-81.6c0,-34.4 28,-80.8 79.2,-80.8c35.2,0 83.2,20 83.2,85.6l86.4,0c0,-100 -71.2,-164.8 -169.6,-164.8c-112,0 -165.6,92 -165.6,160.8c0,41.6 12.8,84.8 40,111.2c27.2,26.4 46.4,36 125.6,66.4c40.8,16 95.2,30.4 95.2,96.8c0,62.4 -40.8,100 -95.2,100c-87.2,0 -96,-87.2 -96,-107.2l-86.4,0Z" style="fill-rule:nonzero;"/><rect x="13923.9" y="13.664" width="86.4" height="592" style="fill-rule:nonzero;"/><path d="M14083.9,430.464c0,132 100.8,186.4 182.4,186.4c108.8,0 181.6,-76 181.6,-179.2c0,-142.4 -107.2,-165.6 -181.6,-193.6c-25.6,-9.6 -79.2,-24.8 -79.2,-81.6c0,-34.4 28,-80.8 79.2,-80.8c35.2,0 83.2,20 83.2,85.6l86.4,0c0,-100 -71.2,-164.8 -169.6,-164.8c-112,0 -165.6,92 -165.6,160.8c0,41.6 12.8,84.8 40,111.2c27.2,26.4 46.4,36 125.6,66.4c40.8,16 95.2,30.4 95.2,96.8c0,62.4 -40.8,100 -95.2,100c-87.2,0 -96,-87.2 -96,-107.2l-86.4,0Z" style="fill-rule:nonzero;"/><path d="M3999.14,1041.66l-93.6,0l-64.8,130.4l-78.4,-76.8c77.6,-37.6 99.2,-92.8 99.2,-142.4c0,-88.8 -68.8,-150.4 -147.2,-150.4c-82.4,0 -149.6,63.2 -149.6,151.2c0,55.2 26.4,86.4 56.8,117.6c-77.6,34.4 -113.6,100 -113.6,168.8c0,99.2 79.2,176.8 180.8,176.8c100.8,0 152.8,-75.2 172,-104l103.2,104l57.6,-58.4l-119.2,-121.6l96.8,-195.2Zm-297.6,-4c-40.8,-37.6 -50.4,-60 -50.4,-84c0,-48 32,-72 62.4,-72c25.6,0 61.6,20 61.6,68.8c0,44 -28.8,63.2 -73.6,87.2Zm101.6,215.2c-10.4,19.2 -43.2,84.8 -114.4,84.8c-60.8,0 -94.4,-48 -94.4,-97.6c0,-71.2 51.2,-99.2 84,-110.4l124.8,123.2Z" style="fill-rule:nonzero;"/><path d="M4771.14,1405.66l-224.8,-592l-77.6,0l-224.8,592l91.2,0l65.6,-174.4l212.8,0l65.6,174.4l92,0Zm-340,-253.6l76,-226.4l1.6,0l75.2,226.4l-152.8,0Z" style="fill-rule:nonzero;"/><path d="M4832.74,1405.66l188.8,0c83.2,0 163.2,-18.4 231.2,-85.6c44,-43.2 74.4,-128.8 74.4,-208.8c0,-57.6 -18.4,-129.6 -60.8,-188.8c-44.8,-61.6 -118.4,-108.8 -241.6,-108.8l-192,0l0,592Zm86.4,-512.8l104.8,0c161.6,0 216.8,128.8 216.8,218.4c0,163.2 -114.4,215.2 -218.4,215.2l-103.2,0l0,-433.6Z" style="fill-rule:nonzero;"/><path d="M5626.34,1405.66l237.6,-592l-91.2,0l-172,444l-172,-444l-92.8,0l238.4,592l52,0Z" style="fill-rule:nonzero;"/><path d="M6329.54,1405.66l-224.8,-592l-77.6,0l-224.8,592l91.2,0l65.6,-174.4l212.8,0l65.6,174.4l92,0Zm-340,-253.6l76,-226.4l1.6,0l75.2,226.4l-152.8,0Z" style="fill-rule:nonzero;"/><path d="M6869.54,1405.66l0,-592l-86.4,0l0,450.4l-1.6,0l-288,-450.4l-94.4,0l0,592l86.4,0l0,-457.6l1.6,0l292.8,457.6l89.6,0Z" style="fill-rule:nonzero;"/><path d="M7536.74,964.864c-15.2,-26.4 -37.6,-66.4 -91.2,-104.8c-64,-46.4 -136,-57.6 -180.8,-57.6c-165.6,0 -304.8,132 -304.8,304.8c0,168 136,309.6 304,309.6c92,0 203.2,-41.6 268.8,-157.6l-106.4,0c-40.8,48 -99.2,78.4 -161.6,78.4c-116,0 -218.4,-102.4 -218.4,-229.6c0,-124.8 96.8,-226.4 220,-226.4c96,0 148.8,63.2 166.4,83.2l104,0Z" style="fill-rule:nonzero;"/><path d="M7926.34,1405.66l0,-79.2l-232.8,0l0,-180l232.8,0l0,-79.2l-232.8,0l0,-174.4l232.8,0l0,-79.2l-319.2,0l0,592l319.2,0Z" style="fill-rule:nonzero;"/><path d="M8023.14,1405.66l188.8,0c83.2,0 163.2,-18.4 231.2,-85.6c44,-43.2 74.4,-128.8 74.4,-208.8c0,-57.6 -18.4,-129.6 -60.8,-188.8c-44.8,-61.6 -118.4,-108.8 -241.6,-108.8l-192,0l0,592Zm86.4,-512.8l104.8,0c161.6,0 216.8,128.8 216.8,218.4c0,163.2 -114.4,215.2 -218.4,215.2l-103.2,0l0,-433.6Z" style="fill-rule:nonzero;"/><path d="M9304.74,1405.66l165.6,-592l-88,0l-115.2,442.4l-1.6,0l-112.8,-442.4l-63.2,0l-114.4,445.6l-1.6,0l-112.8,-445.6l-89.6,0l165.6,592l76,0l107.2,-413.6l1.6,0l107.2,413.6l76,0Z" style="fill-rule:nonzero;"/><path d="M9854.34,1405.66l0,-79.2l-232.8,0l0,-180l232.8,0l0,-79.2l-232.8,0l0,-174.4l232.8,0l0,-79.2l-319.2,0l0,592l319.2,0Z" style="fill-rule:nonzero;"/><path d="M10254.3,1405.66l0,-79.2l-205.6,0l0,-512.8l-86.4,0l0,592l292,0Z" style="fill-rule:nonzero;"/><path d="M10609.5,1405.66l0,-79.2l-205.6,0l0,-512.8l-86.4,0l0,592l292,0Z" style="fill-rule:nonzero;"/><path d="M11139.9,1405.66l0,-592l-86.4,0l0,450.4l-1.6,0l-288,-450.4l-94.4,0l0,592l86.4,0l0,-457.6l1.6,0l292.8,457.6l89.6,0Z" style="fill-rule:nonzero;"/><path d="M11571.1,1405.66l0,-79.2l-232.8,0l0,-180l232.8,0l0,-79.2l-232.8,0l0,-174.4l232.8,0l0,-79.2l-319.2,0l0,592l319.2,0Z" style="fill-rule:nonzero;"/><path d="M11630.3,1230.46c0,132 100.8,186.4 182.4,186.4c108.8,0 181.6,-76 181.6,-179.2c0,-142.4 -107.2,-165.6 -181.6,-193.6c-25.6,-9.6 -79.2,-24.8 -79.2,-81.6c0,-34.4 28,-80.8 79.2,-80.8c35.2,0 83.2,20 83.2,85.6l86.4,0c0,-100 -71.2,-164.8 -169.6,-164.8c-112,0 -165.6,92 -165.6,160.8c0,41.6 12.8,84.8 40,111.2c27.2,26.4 46.4,36 125.6,66.4c40.8,16 95.2,30.4 95.2,96.8c0,62.4 -40.8,100 -95.2,100c-87.2,0 -96,-87.2 -96,-107.2l-86.4,0Z" style="fill-rule:nonzero;"/><path d="M12029.5,1230.46c0,132 100.8,186.4 182.4,186.4c108.8,0 181.6,-76 181.6,-179.2c0,-142.4 -107.2,-165.6 -181.6,-193.6c-25.6,-9.6 -79.2,-24.8 -79.2,-81.6c0,-34.4 28,-80.8 79.2,-80.8c35.2,0 83.2,20 83.2,85.6l86.4,0c0,-100 -71.2,-164.8 -169.6,-164.8c-112,0 -165.6,92 -165.6,160.8c0,41.6 12.8,84.8 40,111.2c27.2,26.4 46.4,36 125.6,66.4c40.8,16 95.2,30.4 95.2,96.8c0,62.4 -40.8,100 -95.2,100c-87.2,0 -96,-87.2 -96,-107.2l-86.4,0Z" style="fill-rule:nonzero;"/></g></g></svg>