<?xml version="1.0" encoding="UTF-8" standalone="no"?><!DOCTYPE svg PUBLIC "-//W3C//DTD SVG 1.1//EN" "http://www.w3.org/Graphics/SVG/1.1/DTD/svg11.dtd"><svg width="100%" height="100%" viewBox="0 0 24 24" version="1.1" xmlns="http://www.w3.org/2000/svg" xmlns:xlink="http://www.w3.org/1999/xlink" xml:space="preserve" xmlns:serif="http://www.serif.com/" style="fill-rule:evenodd;clip-rule:evenodd;stroke-linecap:round;stroke-linejoin:round;"><path d="M21.458,16.714l0,2.854c0,0.002 0,0.005 0,0.007c0,1.044 -0.858,1.903 -1.902,1.903c-0.057,0 -0.114,-0.003 -0.171,-0.008c-2.927,-0.318 -5.739,-1.318 -8.209,-2.92c-2.298,-1.46 -4.247,-3.409 -5.707,-5.707c-1.608,-2.482 -2.608,-5.307 -2.92,-8.247c-0.005,-0.057 -0.008,-0.114 -0.008,-0.171c0,-1.043 0.858,-1.902 1.901,-1.903l2.853,0c0.951,-0.009 1.77,0.695 1.903,1.636c0.12,0.914 0.343,1.81 0.665,2.673c0.261,0.694 0.094,1.48 -0.428,2.007l-1.208,1.208c1.354,2.381 3.326,4.353 5.707,5.707l1.208,-1.208c0.528,-0.521 1.314,-0.689 2.008,-0.428c0.863,0.322 1.759,0.546 2.672,0.666c0.952,0.134 1.66,0.97 1.636,1.931Z" style="fill:none;stroke:#000;stroke-opacity:0.5;stroke-width:1.5px;"/></svg>